# xmcd CD database file generated by Grip 2.96
# 
# Track frame offsets:
#       150
#       19411
#       31165
#       45289
#       54108
#       69085
#       78328
#       94221
#       121349
#       135523
#       154303
#       159290
#       170838
#       177364
#       190432
#       201633
#       224841
# 
# Disc length: 3257 seconds
# 
# Revision: 0
# Processed by: cddbd v1.4PL0 Copyright (c) Steve Scherf et al.
# Submitted via: Grip 2.96
# 
DISCID=ec0cb711
DTITLE=Calexico - The Black Light
DYEAR=1900
DGENRE=
TTITLE0=Gypsy's Curse
TTITLE1=Fake Fur
TTITLE2=The Ride (pt II)
TTITLE3=Where Water Flows
TTITLE4=The Black Light
TTITLE5=Sideshow
TTITLE6=Chach
TTITLE7=Missing
TTITLE8=Minas De Cobre (for better metal)
TTITLE9=Over Your Shoulder
TTITLE10=Vinegaroon
TTITLE11=Trigger
TTITLE12=Sprawl
TTITLE13=Stray
TTITLE14=Old Man Waltz
TTITLE15=Bloodflow
TTITLE16=Frontera
EXTD=
EXTT0=
EXTT1=
EXTT2=
EXTT3=
EXTT4=
EXTT5=
EXTT6=
EXTT7=
EXTT8=
EXTT9=
EXTT10=
EXTT11=
EXTT12=
EXTT13=
EXTT14=
EXTT15=
EXTT16=
PLAYORDER=
